<svg xmlns="http://www.w3.org/2000/svg" viewBox="0 0 512 512"><circle cx="256" cy="256" r="242.04" fill="#c9d1d8"/><path fill="#f2f2f2" d="M451.832 91.034l-7.018-23.061-7.016 23.061z"/><path fill="#cccbca" d="M444.814 67.973l7.018 23.061h-4.418z"/><path fill="#f68360" d="M437.805 91.031h14.035v175.902h-14.035z"/><path fill="#ed6d47" d="M447.413 91.031h4.418v175.902h-4.418z"/><path fill="#353f49" d="M447.554 76.996l-2.74-9.023-2.759 9.023z"/><path fill="#232e38" d="M447.554 76.996l-2.74-9.023 1.018 9.023z"/><path fill="#fff" d="M437.805 266.933h14.035v8.145h-14.035z"/><path fill="#d9d8d7" d="M447.413 266.933h4.418v8.145h-4.418z"/><path d="M451.832 283.847a7.015 7.015 0 0 1-7.018 7.017 7.013 7.013 0 0 1-7.018-7.017v-8.77h14.035v8.77h.001z" fill="#f68360"/><path d="M439.852 288.81a6.888 6.888 0 0 1-1.669-2.748c.72.239 1.465.39 2.217.39a6.985 6.985 0 0 0 4.957-2.057 6.992 6.992 0 0 0 2.054-4.963v-4.357h4.42v8.77a7.018 7.018 0 0 1-7.019 7.019 6.988 6.988 0 0 1-4.96-2.054z" fill="#ed6d47"/><path d="M341.498 107.862h15.938v-4.826h39.319c6.704 6.239 15.676 10.056 25.559 10.056v2.81h-35.317v-3.22h-50.325l4.826-4.82zm0 35.227h15.938v4.826h39.319c6.704-6.243 15.676-10.065 25.559-10.065v-2.801h-35.317v3.218h-50.325l4.826 4.822z" fill="#f2f2f2"/><path fill="#fff" d="M362.27 103.032h15.042v149.941H362.27z"/><path d="M374.001 115.902h3.316v.386h-3.316zm0 5.487h3.316v.386h-3.316zm0 5.512h3.316v.381h-3.316zm0 5.481h3.316v.386h-3.316zm0 5.497h3.316v.386h-3.316zm0 5.496h3.316v.387h-3.316zm0 5.497h3.316v.379h-3.316zm0 5.496h3.316v.382h-3.316zm0 5.496h3.316v.381h-3.316zm0 5.497h3.316v.384h-3.316zm0 5.481h3.316v.389h-3.316zm0 5.497h3.316v.386h-3.316zm0 5.496h3.316v.384h-3.316zm0 5.497h3.316v.386h-3.316zm0 5.496h3.316v.389h-3.316zm0 5.497h3.316v.379h-3.316zm0 5.481h3.316v.381h-3.316zm0 5.497h3.316v.382h-3.316zm0 5.496h3.316v.392h-3.316zm0 5.497h3.316v.379h-3.316zm1.656-101.557h1.663v.215h-1.663zm0 5.481h1.663v.223h-1.663zm0 5.497h1.663v.221h-1.663zm0 5.496h1.663v.218h-1.663zm0 5.497h1.663v.218h-1.663zm0 5.481h1.663v.223h-1.663zm0 5.497h1.663v.22h-1.663zm0 5.511h1.663v.218h-1.663zm0 5.481h1.663v.22h-1.663zm0 5.497h1.663v.221h-1.663zm0 5.496h1.663v.217h-1.663zm0 5.497h1.663v.223h-1.663zm0 5.496h1.663v.221h-1.663zm0 5.497h1.663v.22h-1.663zm0 5.481h1.663v.221h-1.663zm0 5.497h1.663v.22h-1.663zm0 5.496h1.663v.221h-1.663zm0 5.497h1.663v.22h-1.663zm0 5.496h1.663v.22h-1.663zm-1.656 8.162h3.316v.381h-3.316zm1.656-2.665h1.663v.218h-1.663z" fill="#232e38"/><path fill="#f2f2f2" d="M357.436 138.27h5.891v43.615h-5.891z"/><path fill="#fff" d="M355.644 158.916h1.789v7.139h-1.789z"/><path fill="#f2f2f2" d="M376.26 138.27h5.891v43.615h-5.891z"/><path d="M376.26 143.375h3.314v.387h-3.314zm0 5.497h3.314v.386h-3.314zm0 5.496h3.314v.378h-3.314zm0 5.496h3.314v.384h-3.314zm0 5.482h3.314v.384h-3.314zm0 5.496h3.314v.39h-3.314zm0 5.497h3.314v.382h-3.314zm0-30.133h1.659v.22h-1.659zm0 5.482h1.659v.22h-1.659zm0 5.511h1.659v.217h-1.659zm0 5.481h1.659v.22h-1.659zm0 5.497h1.659v.22h-1.659zm0 5.496h1.659v.217h-1.659z" fill="#232e38"/><path d="M318.146 312.072a6.336 6.336 0 0 1-1.87 4.503 6.345 6.345 0 0 1-4.5 1.864H37.835a6.347 6.347 0 0 1-4.501-1.864 6.345 6.345 0 0 1-1.867-4.503V292.96h286.679v19.112z" fill="#fff"/><path d="M318.146 109.401a6.328 6.328 0 0 0-1.87-4.495 6.314 6.314 0 0 0-4.5-1.87H37.835a6.316 6.316 0 0 0-4.501 1.87 6.337 6.337 0 0 0-1.867 4.495v183.56h286.679v-183.56z" fill="#232e38"/><path fill="#fff" d="M45.804 117.365h258.003V278.63H45.804z"/><path fill="#f2f2f2" d="M214.626 356.665h-79.639l4.328-38.225h70.986z"/><path d="M230.551 361.129H119.06v-1.911c0-.658.251-1.309.751-1.803a2.534 2.534 0 0 1 1.8-.75H228c.649 0 1.306.253 1.803.75.501.494.747 1.146.747 1.803v1.911h.001z" fill="#fff"/><path fill="#e6e5e5" d="M214.626 356.665l-4.325-38.225h-70.986l37.034 38.225z"/><path d="M81.681 267.378c-4.153 0-7.557-3.385-7.557-7.546V136.154c0-4.147 3.4-7.54 7.557-7.54h186.264c4.15 0 7.54 3.393 7.54 7.54v123.678c0 4.159-3.385 7.546-7.54 7.546H81.681z" fill="#232e38"/><path d="M267.07 205.649a3.362 3.362 0 0 1-3.357 3.357h-.827a3.372 3.372 0 0 1-3.366-3.357V190.34c0-1.843 1.51-3.36 3.366-3.36h.827a3.365 3.365 0 0 1 3.357 3.36v15.309zm-179.652-7.637a3.435 3.435 0 0 1-3.461 3.436c-1.89 0-3.454-1.527-3.454-3.436 0-1.902 1.566-3.459 3.454-3.459a3.454 3.454 0 0 1 3.461 3.459z" fill="#474f59"/><path d="M85.408 197.999c0 .803-.651 1.434-1.45 1.434a1.425 1.425 0 0 1-1.432-1.434c0-.8.64-1.447 1.432-1.447a1.45 1.45 0 0 1 1.45 1.447zm8.393-61.506h157.304v123.016H93.801z" fill="#fff"/><path d="M152.187 248.261c-3.852 0-7.008-3.143-7.008-6.996v-86.502c0-3.858 3.155-7.013 7.008-7.013h40.68c3.852 0 7.007 3.155 7.007 7.013v86.502c0 3.855-3.153 6.996-7.007 6.996h-40.68z" fill="#232e38"/><path d="M178.587 241.023c0 .926-.739 1.675-1.669 1.675h-8.785a1.68 1.68 0 0 1-1.673-1.675v-.703c0-.916.76-1.675 1.673-1.675h8.785c.929 0 1.669.759 1.669 1.675v.703zm-4.033-85.681a2.015 2.015 0 0 1-2.016 2.019 2.019 2.019 0 1 1 0-4.038c1.119 0 2.016.909 2.016 2.019z" fill="#474f59"/><path d="M173.473 155.342a.94.94 0 0 1-.935.958.961.961 0 0 1-.958-.958c0-.518.434-.955.958-.955a.944.944 0 0 1 .935.955zm-24.33 7.61h46.758v70.13h-46.758z" fill="#fff"/><path fill="#f68360" d="M152.742 166.536h39.56v6.054h-39.56z"/><path d="M152.742 223.142h39.56v1.992h-39.56zm0 4.352h19.772v1.985h-19.772z" fill="#cccbca"/><path fill="#abe0e5" d="M152.742 189.786h39.56v30.997h-39.56z"/><path fill="#cccbca" d="M152.742 174.953h39.56v12.467h-39.56z"/><path d="M478.646 234.966a6.495 6.495 0 0 0-4.581-1.887H291.578a6.524 6.524 0 0 0-4.581 1.887 6.465 6.465 0 0 0-1.884 4.575v112.776h195.415V239.541a6.46 6.46 0 0 0-1.882-4.575z" fill="#232e38"/><circle cx="382.825" cy="238.05" r="2.741" fill="#474f59"/><path d="M383.88 238.053c0 .589-.476 1.066-1.057 1.066a1.061 1.061 0 1 1 1.057-1.066zm-88.592 4.981h175.074v109.282H295.288z" fill="#fff"/><path fill="#f68360" d="M302.562 249.088h48.444v14.524h-48.444z"/><path fill="#e6e5e5" d="M358.596 249.088h105.638v14.524H358.596z"/><path d="M301.402 331.008h48.429v2.775h-48.429zm0 6.249h48.429v2.774h-48.429zm0 6.235h24.215v2.775h-24.215zm57.194-12.484h48.429v2.775h-48.429zm0 6.249h48.429v2.774h-48.429zm0 6.235h24.215v2.775h-24.215zm57.193-12.484h48.429v2.775h-48.429zm0 6.249h48.429v2.774h-48.429zm0 6.235h24.215v2.775h-24.215z" fill="#cccbca"/><path d="M301.402 297.698h48.429v27.63h-48.429zm57.194 0h48.429v27.63h-48.429zm57.208 0h48.429v27.63h-48.429z" fill="#abe0e5"/><path fill="#cccbca" d="M301.402 269.297h162.831v22.739H301.402z"/><path fill="#f2f2f2" d="M264.388 352.316h236.86v2.935h-236.86z"/><path d="M264.389 355.251c8.549 3.778 18.007 5.876 27.955 5.876h180.948c9.949 0 19.405-2.099 27.954-5.876H264.389z" fill="#cccbca"/><path fill="#232e38" d="M362.27 352.316h41.111v1.47H362.27z"/><path d="M0 361.129v49.988h512v-49.988H0zm24.773 30.769a5.78 5.78 0 1 1 0-11.561 5.784 5.784 0 0 1 5.781 5.786 5.776 5.776 0 0 1-5.781 5.775z" fill="#ffb959"/><path d="M7.575 361.126h1.367v7.311H7.575zm16.519 0h1.367v7.311h-1.367zm16.518 0h1.366v7.311h-1.366zm16.523 0h1.366v7.311h-1.366zm16.507 0h1.369v7.311h-1.369zm16.512 0h1.369v7.311h-1.369zm16.523 0h1.369v7.311h-1.369zm16.519 0h1.369v7.311h-1.369zm16.52 0h1.369v7.311h-1.369zm16.519 0h1.369v7.311h-1.369zm16.505 0h1.373v7.311h-1.373zm16.504 0h1.372v7.311h-1.372zm16.52 0h1.379v7.311h-1.379zm16.519 0h1.379v7.311h-1.379zm16.52 0h1.376v7.311h-1.376zm16.504 0h1.378v7.311h-1.378zm16.52 0h1.378v7.311h-1.378zm16.519 0h1.376v7.311h-1.376zm16.52 0h1.376v7.311h-1.376zm16.519 0h1.369v7.311h-1.369zm16.505 0h1.37v7.311h-1.37zm16.519 0h1.367v7.311h-1.367zm16.52 0h1.369v7.311h-1.369zm16.519 0h1.366v7.311h-1.366zm16.505 0h1.367v7.311h-1.367zm16.535 0h1.367v7.311h-1.367zm16.504 0h1.367v7.311h-1.367zm16.52 0h1.369v7.311h-1.369zm16.504 0h1.366v7.311h-1.366zm16.52 0h1.367v7.311h-1.367zm16.519 0h1.367v7.311h-1.367zm-486.996 0h.913v3.65h-.913zm16.525 0h.914v3.65h-.914zm16.52 0h.911v3.65h-.911zm16.516 0h.914v3.65h-.914zm16.526 0h.91v3.65h-.91zm16.504 0h.913v3.65h-.913zm16.52 0h.914v3.65h-.914zm16.504 0h.908v3.65h-.908zm16.52 0h.911v3.65h-.911zm16.534 0h.911v3.65h-.911zm16.49 0h.913v3.65h-.913zm16.519 0h.922v3.65h-.922zm16.52 0h.911v3.65h-.911zm16.504 0h.919v3.65h-.919zm16.52 0h.92v3.65h-.92zm16.519 0h.919v3.65h-.919zm16.52 0h.916v3.65h-.916zm16.504 0h.911v3.65h-.911zm16.52 0h.916v3.65h-.916zm16.52 0h.913v3.65h-.913zm16.519 0h.913v3.65h-.913zm16.52 0h.913v3.65h-.913zm16.519 0h.913v3.65h-.913zm16.505 0h.91v3.65h-.91zm16.519 0h.913v3.65h-.913zm16.505 0h.913v3.65h-.913zm16.534 0h.911v3.65h-.911zm16.52 0h.911v3.65h-.911zm16.504 0h.911v3.65h-.911zm16.52 0h.913v3.65h-.913z" fill="#232e38"/></svg>