<svg xmlns="http://www.w3.org/2000/svg" viewBox="0 0 511.999 511.999"><circle cx="243.863" cy="255.11" r="230.551" fill="#c9d1d8"/><path fill="#fff" d="M198.219 406.752h26.603v39.017h-26.603z"/><path d="M203.55 428.03h15.962v12.414H203.55zm0-15.962h2.661v7.094h-2.661zm13.297 0h2.661v7.094h-2.661zm-6.656 7.093h2.661v3.546h-2.661z" fill="#d9d8d7"/><path fill="#cccbca" d="M209.754 440.439h3.546v5.32h-3.546z"/><path d="M198.347 481.176a34.509 34.509 0 0 1-19.879 6.263c-15.34 0-28.411-9.969-33.024-23.782 1.545.744 3.104 1.455 4.667 2.161 5.001 10.68 15.819 18.075 28.359 18.075 5.39 0 10.463-1.364 14.898-3.78 1.647.375 3.312.729 4.979 1.063z" fill="#d9d8d7"/><path d="M150.111 465.818a201.029 201.029 0 0 1-4.667-2.161 34.48 34.48 0 0 1-1.809-11.05v-54.109h3.546v54.109a31.055 31.055 0 0 0 2.93 13.211zm63.188-20.054v6.844c0 11.829-5.924 22.293-14.95 28.568a199.23 199.23 0 0 1-4.983-1.063c9.755-5.302 16.384-15.643 16.384-27.508v-6.841h3.549z" fill="#fff"/><path fill="#d9d8d7" d="M212.067 374.615h-77.983l4.237-37.431h69.512z"/><path d="M227.662 378.987H118.489v-1.87c0-.645.247-1.283.738-1.768a2.465 2.465 0 0 1 1.759-.733h104.178c.632 0 1.28.245 1.763.733a2.47 2.47 0 0 1 .735 1.768v1.87zm85.772-48.038a6.203 6.203 0 0 1-1.833 4.409 6.19 6.19 0 0 1-4.406 1.825H38.951a6.199 6.199 0 0 1-4.405-1.825 6.21 6.21 0 0 1-1.828-4.409v-18.717h280.716v18.717z" fill="#fff"/><path d="M313.434 132.494a6.194 6.194 0 0 0-1.833-4.403 6.18 6.18 0 0 0-4.406-1.83H38.951a6.191 6.191 0 0 0-4.405 1.83 6.208 6.208 0 0 0-1.828 4.403v179.739h280.716V132.494z" fill="#232e38"/><path fill="#fff" d="M46.758 140.302H299.4v157.907H46.758z"/><path fill="#f2f2f2" d="M52.856 146.4h194.455v145.679H52.856z"/><path d="M52.856 146.4h240.429v10.172H52.856zm0 17.95h24.94v127.729h-24.94z" fill="#d9d8d7"/><path fill="#fff" d="M56.93 168.416h16.801v69.512H56.93z"/><path fill="#232e38" d="M52.856 156.58h24.94v7.781h-24.94z"/><path fill="#cccbca" d="M98.455 156.58h148.856v7.781H98.455z"/><path fill="#d9d8d7" d="M247.311 164.35h45.978v54.883h-45.978z"/><path fill="#fff" d="M251.377 168.416h37.843V196.9h-37.843z"/><path fill="#d9d8d7" d="M247.311 227.025h45.978v65.054h-45.978z"/><path fill="#fff" d="M251.377 231.091h37.843v46.833h-37.843z"/><path d="M247.311 156.58h45.978v7.781h-45.978zm0 62.66h45.978v7.784h-45.978z" fill="#232e38"/><path d="M254.886 234.585h30.845v2.455h-30.845zm0 5.346h30.845v2.455h-30.845zm0-68.006h30.845v2.461h-30.845zm0 5.331h30.845v2.461h-30.845zm0 5.346h30.845v2.458h-30.845z" fill="#d9d8d7"/><path fill="#cccbca" d="M237.824 164.35h9.496v127.729h-9.496z"/><path fill="#fff" d="M83.899 170.464h147.817v115.531H83.899z"/><path fill="#ff9978" d="M213.459 267.729h11.543v11.535h-11.543z"/><path fill="#232e38" d="M196.412 267.729h11.543v11.535h-11.543z"/><path fill="#ffd680" d="M179.351 267.729h11.54v11.535h-11.54z"/><path fill="#232e38" d="M62.526 249.192h11.201v11.202H62.526z"/><path fill="#ff9978" d="M56.93 243.59h11.196v11.196H56.93z"/><path d="M61.676 173.175h7.294v7.288h-7.294zm0 12.047h7.294v7.29h-7.294zm0 12.047h7.294v7.291h-7.294z" fill="#d9d8d7"/><path fill="#ff9978" d="M104.886 249.989l26.986-46.742 26.991 46.742z"/><circle cx="187.362" cy="226.619" r="23.373" fill="#232e38"/><path fill="#ffd680" d="M148.932 188.204h38.421v38.421h-38.421z"/><path d="M187.357 203.247c-12.905 0-23.374 10.464-23.374 23.373h23.374v-23.373z" fill="#fff"/><path fill="#ffd680" d="M21.006 307.229H76.21v71.761H21.006z"/><path fill="#ffc86d" d="M48.61 307.229h27.601v71.761H48.61z"/><path fill="#ffb959" d="M62.404 307.229h13.8v71.761h-13.8z"/><path d="M82.834 363.25H76.21v-6.069h6.624a5.181 5.181 0 0 0 3.703-1.534 5.212 5.212 0 0 0 1.541-3.706v-17.673a5.187 5.187 0 0 0-1.541-3.695 5.177 5.177 0 0 0-3.703-1.538H76.21v-6.072h6.624c3.016 0 5.858 1.17 7.999 3.307a11.246 11.246 0 0 1 3.311 7.999v17.673c0 3.024-1.175 5.865-3.311 8.001a11.261 11.261 0 0 1-7.999 3.307z" fill="#ffc86d"/><g fill="#ed6d47"><path d="M28.561 307.226v5.602a2.084 2.084 0 0 1-4.168 0v-5.602h4.168z"/><path d="M32.715 307.226v5.602a2.081 2.081 0 0 0-2.078-2.083 2.083 2.083 0 0 0-2.078 2.083v-5.602h4.156zm4.172 0v22.039a2.073 2.073 0 0 1-2.081 2.078 2.085 2.085 0 0 1-2.09-2.078v-22.039h4.171zm8.33 0v13.953a2.085 2.085 0 0 1-2.086 2.089 2.089 2.089 0 0 1-2.081-2.089v-13.953h4.167z"/><path d="M41.049 307.226v3.772a2.08 2.08 0 0 0-2.09-2.081 2.08 2.08 0 0 0-2.075 2.081v-3.772h4.165z"/></g><path fill="#474f59" d="M0 378.984h487.71v14.188H0z"/><path fill="#232e38" d="M13.301 393.169h461.101v5.319H13.301z"/><g fill="#474f59"><path d="M501.891 276.178l5.22 3.658-60.927 86.936-5.22-3.658z"/><path d="M441.101 196.451l5.224-3.647 60.779 87.044-5.224 3.647z"/></g><path d="M494.484 279.791c0 4.837 3.923 8.76 8.755 8.76a8.761 8.761 0 0 0 8.76-8.76c0-4.835-3.924-8.755-8.76-8.755-4.831-.001-8.755 3.92-8.755 8.755zm-120.563 99.196h92.895v-5.314a10.6 10.6 0 0 0-3.107-7.504 10.598 10.598 0 0 0-7.51-3.107h-71.663a10.589 10.589 0 0 0-7.504 3.107 10.587 10.587 0 0 0-3.107 7.504l-.004 5.314zm69.765-191.825c4.185 2.432 5.609 7.788 3.176 11.972-2.431 4.185-7.79 5.608-11.97 3.18l-19.852-11.525 8.791-15.151 19.855 11.524zm-94.82 17.018l80.148 46.521-.234-49.971-36.404-21.134z" fill="#232e38"/><path fill="#474f59" d="M428.812 200.75l-36.406-21.13 10.499-18.088 36.405 21.13z"/><path fill="#232e38" d="M430.478 177.493l-18.751-10.887 2.968-5.112 18.751 10.887z"/><path d="M210.778 26.909v78.125H92.928V80.819a227.387 227.387 0 0 1 11.279-9.171 233.005 233.005 0 0 1 12.619-8.975 257.286 257.286 0 0 1 6.746-4.292 224.41 224.41 0 0 1 18.191-10.044 229.438 229.438 0 0 1 27.618-11.49 227.157 227.157 0 0 1 17.498-5.195 228.998 228.998 0 0 1 12.619-2.831 248.126 248.126 0 0 1 11.28-1.912z" fill="#f68360"/><path d="M210.778 26.909v78.125l-11.279-9.261-15.375-12.634-8.192-6.731-34.168-28.07a229.438 229.438 0 0 1 27.618-11.49 227.157 227.157 0 0 1 17.498-5.195 228.998 228.998 0 0 1 12.619-2.831c3.72-.724 7.485-1.356 11.279-1.913z" fill="#ed6d47"/><path d="M199.499 28.821v66.952h-95.292V71.648a233.005 233.005 0 0 1 12.619-8.975 257.286 257.286 0 0 1 6.746-4.292 224.41 224.41 0 0 1 18.191-10.044 229.438 229.438 0 0 1 27.618-11.49 227.157 227.157 0 0 1 17.498-5.195 229.24 229.24 0 0 1 12.62-2.831z" fill="#fff"/><path d="M186.88 31.652v51.486h-70.054V62.673a257.286 257.286 0 0 1 6.746-4.292 224.41 224.41 0 0 1 18.191-10.044 229.438 229.438 0 0 1 27.618-11.49 227.76 227.76 0 0 1 17.499-5.195z" fill="#cccbca"/><path d="M180.149 36.847v39.56h-56.576V58.382a224.41 224.41 0 0 1 18.191-10.044 229.438 229.438 0 0 1 27.618-11.49l10.767-.001z" fill="#e6e5e5"/><path d="M414.17 87.499c0 23.901-19.366 43.273-43.275 43.273-23.897 0-43.27-19.375-43.27-43.273 0-23.9 19.376-43.275 43.27-43.275 23.91.001 43.275 19.375 43.275 43.275z" fill="#474f59"/><path d="M406.533 87.499c0 19.679-15.947 35.637-35.637 35.637-19.673 0-35.632-15.956-35.632-35.637s15.959-35.64 35.632-35.64c19.689.002 35.637 15.961 35.637 35.64z" fill="#d9d8d7"/><path d="M404.905 87.499c0 18.777-15.223 34.001-34.009 34.001-18.771 0-33.997-15.223-33.997-34.001s15.226-34.003 33.997-34.003c18.784 0 34.009 15.225 34.009 34.003z" fill="#fff"/><g fill="#353f49"><path d="M371.79 56.376a.89.89 0 0 1-.895.884.886.886 0 0 1-.882-.884c0-.486.399-.884.882-.884.493 0 .895.397.895.884zm-15.68 3.728a.886.886 0 0 1-.33 1.209.874.874 0 0 1-1.202-.328.875.875 0 0 1 .322-1.202.887.887 0 0 1 1.21.321zm-11.716 11.067c.42.25.563.785.319 1.209a.876.876 0 0 1-1.206.319.88.88 0 0 1-.324-1.199.89.89 0 0 1 1.211-.329zm-4.613 15.441c.488 0 .887.396.887.887a.885.885 0 0 1-1.771 0 .89.89 0 0 1 .884-.887zm3.726 15.681a.882.882 0 1 1 .887 1.527.876.876 0 0 1-1.202-.322.878.878 0 0 1 .315-1.205z"/><circle cx="355.343" cy="114.446" r=".882"/><path d="M370.013 118.617a.89.89 0 0 1 .89-.885c.485 0 .887.393.887.885a.887.887 0 0 1-.884.879.886.886 0 0 1-.893-.879z"/><circle cx="386.455" cy="114.446" r=".881"/><path d="M397.411 103.82a.887.887 0 0 1-.325-1.212.877.877 0 0 1 1.205-.316.882.882 0 0 1-.88 1.528zm4.611-15.441a.892.892 0 0 1-.887-.888c0-.486.398-.878.887-.878a.884.884 0 0 1 0 1.766zm-3.731-15.678a.887.887 0 0 1-1.209-.327.882.882 0 0 1 .33-1.206.88.88 0 0 1 1.203.319.889.889 0 0 1-.324 1.214zm-11.065-11.714a.89.89 0 0 1-1.214.322.885.885 0 0 1 .888-1.533.89.89 0 0 1 .326 1.211zM369.83 87.49h2.141v17.278h-2.141zm2.846-.711h21.379v1.428h-21.379z"/><path d="M374.876 87.495a3.982 3.982 0 0 1-3.982 3.979 3.98 3.98 0 0 1-3.97-3.979 3.972 3.972 0 0 1 3.97-3.971 3.974 3.974 0 0 1 3.982 3.971z"/></g><g fill="#f68360"><path d="M354.231 71.432l.605-.603 20.143 20.166-.604.603z"/><path d="M373.551 87.495a2.65 2.65 0 0 1-2.655 2.653 2.653 2.653 0 0 1-2.653-2.649 2.662 2.662 0 0 1 2.658-2.65 2.645 2.645 0 0 1 2.65 2.646z"/></g><path d="M372.227 87.496c0 .732-.602 1.321-1.331 1.321a1.322 1.322 0 0 1 0-2.645 1.332 1.332 0 0 1 1.331 1.324z" fill="#353f49"/><path d="M429.009 250.696l-17.7 112.369H384.53c-2.714 0-5.429 1.03-7.502 3.104a10.582 10.582 0 0 0-3.104 7.501v5.32H227.665v-1.881c0-.637-.248-1.278-.727-1.756a2.508 2.508 0 0 0-1.774-.745h-13.088l-4.239-37.42h99.351a6.182 6.182 0 0 0 4.417-1.828 6.22 6.22 0 0 0 1.828-4.417V232.55l35.432-28.375 80.144 46.521z" fill="#c2eaee"/><path d="M313.431 312.237v18.709a6.218 6.218 0 0 1-1.828 4.417 6.185 6.185 0 0 1-4.417 1.828H182.758l31.161-24.952h99.512v-.002z" fill="#fff"/><path fill="#e4e4e5" d="M212.075 374.611h-76.047l46.73-37.423h25.078z"/><path d="M227.664 377.111v1.879h-97.099l5.462-4.379h89.136a2.5 2.5 0 0 1 1.774.744c.478.479.727 1.117.727 1.756z" fill="#fff"/><path fill="#606f7d" d="M313.431 232.552v79.685H213.92l17.539-14.047h67.942v-54.412z"/><path fill="#fff" d="M299.401 243.778v54.412h-67.942l7.644-6.12h54.198v-43.396z"/><path fill="#e4e4e5" d="M293.301 248.674v43.396h-45.987v-6.579l9.434-7.555h32.475v-25.999z"/><path fill="#dadbdc" d="M247.314 285.491v6.579h-8.211z"/><path fill="#fff" d="M289.223 251.937v25.999h-32.475z"/><path d="M411.309 363.065l-2.518 15.925h-34.867v-5.32c0-2.712 1.03-5.427 3.104-7.498a10.575 10.575 0 0 1 7.502-3.105l26.779-.002z" fill="#606f7d"/><path d="M286.935 319.88v42.738H246.91c-4.29 0-7.772-3.486-7.772-7.778v-34.96h47.797z" fill="#ffe3ac"/><path d="M254.687 354.84a7.778 7.778 0 0 1-7.776 7.776h40.023a7.773 7.773 0 0 0 7.773-7.776h-40.02zm-15.553-34.962h47.797v7.772h-47.797z" fill="#ffcf93"/><path d="M340.792 378.987c.943-1.691 1.47-3.545 1.47-5.487 0-7.853-8.502-14.223-18.992-14.223-10.496 0-18.995 6.37-18.995 14.223 0 1.943.524 3.796 1.47 5.487h35.047z" fill="#fff"/><path d="M304.47 375.529a11.311 11.311 0 0 0 1.272 3.458h35.052a11.675 11.675 0 0 0 1.274-3.458H304.47z" fill="#ededee"/></svg>